<svg width="62" height="48" viewBox="0 0 62 48" fill="none" xmlns="http://www.w3.org/2000/svg">
<rect width="62" height="48" rx="24" fill="#F8F8F8"/>
<path fill-rule="evenodd" clip-rule="evenodd" d="M38 22.9999H26.135L29.768 18.6399C30.122 18.2159 30.064 17.5849 29.64 17.2319C29.215 16.8779 28.585 16.9359 28.232 17.3599L23.232 23.3599C23.193 23.4069 23.173 23.4619 23.144 23.5139C23.12 23.5559 23.091 23.5919 23.073 23.6379C23.028 23.7529 23.001 23.8739 23.001 23.9959C23.001 23.9969 23 23.9989 23 23.9999C23 24.0009 23.001 24.0029 23.001 24.0039C23.001 24.1259 23.028 24.2469 23.073 24.3619C23.091 24.4079 23.12 24.4439 23.144 24.4859C23.173 24.5379 23.193 24.5929 23.232 24.6399L28.232 30.6399C28.43 30.8769 28.714 30.9999 29 30.9999C29.226 30.9999 29.453 30.9239 29.64 30.7679C30.064 30.4149 30.122 29.7839 29.768 29.3599L26.135 24.9999H38C38.552 24.9999 39 24.5519 39 23.9999C39 23.4479 38.552 22.9999 38 22.9999Z" fill="#757D8A"/>
</svg>
