<svg width="12" height="10" viewBox="0 0 12 10" fill="none" xmlns="http://www.w3.org/2000/svg">
<path fill-rule="evenodd" clip-rule="evenodd" d="M1.33331 5.66666L9.24331 5.66666L6.82131 8.57332C6.58531 8.85599 6.62398 9.27666 6.90665 9.51199C7.18998 9.74799 7.60998 9.70932 7.84531 9.42666L11.1786 5.42666C11.2046 5.39532 11.218 5.35866 11.2373 5.32399C11.2533 5.29599 11.2726 5.27199 11.2846 5.24132C11.3146 5.16466 11.3326 5.08399 11.3326 5.00266C11.3326 5.00199 11.3333 5.00066 11.3333 4.99999C11.3333 4.99932 11.3326 4.99799 11.3326 4.99732C11.3326 4.91599 11.3146 4.83532 11.2846 4.75866C11.2726 4.72799 11.2533 4.70399 11.2373 4.67599C11.218 4.64132 11.2046 4.60466 11.1786 4.57332L7.84531 0.573323C7.71331 0.415323 7.52398 0.333323 7.33331 0.333323C7.18265 0.333323 7.03131 0.38399 6.90665 0.48799C6.62398 0.723323 6.58531 1.14399 6.82131 1.42666L9.24331 4.33332L1.33331 4.33332C0.965313 4.33332 0.666647 4.63199 0.666647 4.99999C0.666647 5.36799 0.965313 5.66666 1.33331 5.66666" fill="white"/>
</svg>
